<svg xmlns="http://www.w3.org/2000/svg" width="40" height="40" viewBox="0 0 40 40">
  <path 
    d="M20 34c-0.2 0-0.4-0.1-0.6-0.2-0.4-0.3-10.4-8.5-10.4-17.8 0-6 5-11 11-11s11 5 11 11c0 9.3-10 17.5-10.4 17.8-0.2 0.1-0.4 0.2-0.6 0.2z" 
    fill="#2563eb"
  />
  <path 
    d="M20 8c3.9 0 7 3.1 7 7 0 7.1-7 13.3-7 13.3s-7-6.2-7-13.3c0-3.9 3.1-7 7-7z" 
    fill="#ffffff"
  />
  <text x="20" y="20" text-anchor="middle" font-family="Arial" font-size="12" font-weight="bold" fill="#ffffff">
    GA
  </text>
</svg>