<svg xmlns="http://www.w3.org/2000/svg" width="32" height="32" viewBox="0 0 32 32">
  <path d="M28 32h-24c-1.1 0-2-0.9-2-2v-18c0-1.1 0.9-2 2-2h24c1.1 0 2 0.9 2 2v18c0 1.1-0.9 2-2 2z" fill="#1e40af"/>
  <path d="M25 10h-18v-8c0-1.1 0.9-2 2-2h14c1.1 0 2 0.9 2 2v8z" fill="#1e40af"/>
  <rect x="13" y="16" width="6" height="6" fill="#ffffff"/>
  <rect x="13" y="24" width="6" height="8" fill="#ffffff"/>
  <rect x="6" y="18" width="4" height="4" fill="#ffffff"/>
  <rect x="22" y="18" width="4" height="4" fill="#ffffff"/>
  <rect x="14" y="4" width="4" height="2" fill="#ffffff"/>
  <rect x="14" y="7" width="4" height="2" fill="#ffffff"/>
</svg>