<svg xmlns="http://www.w3.org/2000/svg" width="0" height="0" style="display:none;">
  <!-- Chemotherapy Icon -->
  <symbol id="icon-chemotherapy" viewBox="0 0 24 24">
    <path d="M19 8.5L12 3 5 8.5V19h14V8.5z" stroke="currentColor" stroke-width="1.5" fill="none" stroke-linecap="round" stroke-linejoin="round"/>
    <circle cx="12" cy="11" r="3" stroke="currentColor" stroke-width="1.5" fill="none"/>
    <path d="M8.5 15.5L15.5 8.5M8.5 8.5l7 7" stroke="currentColor" stroke-width="1.5" fill="none"/>
  </symbol>
  
  <!-- Consultation Icon -->
  <symbol id="icon-consultation" viewBox="0 0 24 24">
    <circle cx="12" cy="8" r="5" stroke="currentColor" stroke-width="1.5" fill="none"/>
    <path d="M20 21v-2a7 7 0 00-14 0v2" stroke="currentColor" stroke-width="1.5" fill="none"/>
    <path d="M9 14h6M12 11v6" stroke="currentColor" stroke-width="1.5" fill="none"/>
  </symbol>
  
  <!-- Research Icon -->
  <symbol id="icon-research" viewBox="0 0 24 24">
    <path d="M9 3v18m6-18v18" stroke="currentColor" stroke-width="1.5" fill="none"/>
    <path d="M3 9h18M3 15h18" stroke="currentColor" stroke-width="1.5" fill="none"/>
    <circle cx="12" cy="12" r="2" stroke="currentColor" stroke-width="1.5" fill="none"/>
  </symbol>
  
  <!-- Diagnosis Icon -->
  <symbol id="icon-diagnosis" viewBox="0 0 24 24">
    <rect x="3" y="3" width="18" height="18" rx="2" stroke="currentColor" stroke-width="1.5" fill="none"/>
    <path d="M8 14l2 2 6-6" stroke="currentColor" stroke-width="1.5" fill="none"/>
  </symbol>
  
  <!-- Treatment Icon -->
  <symbol id="icon-treatment" viewBox="0 0 24 24">
    <path d="M12 3v18M3 12h18" stroke="currentColor" stroke-width="1.5" fill="none"/>
  </symbol>
  
  <!-- Oncology Icon -->
  <symbol id="icon-oncology" viewBox="0 0 24 24">
    <circle cx="12" cy="12" r="9" stroke="currentColor" stroke-width="1.5" fill="none"/>
    <path d="M5 12h14M12 5v14" stroke="currentColor" stroke-width="1.5" fill="none"/>
    <circle cx="12" cy="12" r="3" stroke="currentColor" stroke-width="1.5" fill="none"/>
  </symbol>
</svg>