<svg xmlns="http://www.w3.org/2000/svg" width="0" height="0">
  <symbol id="icon-consultation" viewBox="0 0 24 24">
    <path d="M20 3h-16c-1.1 0-2 0.9-2 2v14c0 1.1 0.9 2 2 2h16c1.1 0 2-0.9 2-2v-14c0-1.1-0.9-2-2-2z" fill="#2563eb"/>
    <path d="M8 10c1.66 0 3-1.34 3-3s-1.34-3-3-3-3 1.34-3 3 1.34 3 3 3z" fill="#ffffff"/>
    <path d="M14 15c0-2.21-1.79-4-4-4s-4 1.79-4 4v5h8v-5z" fill="#ffffff"/>
    <rect x="14" y="8" width="6" height="1" fill="#ffffff"/>
    <rect x="14" y="11" width="6" height="1" fill="#ffffff"/>
    <rect x="14" y="14" width="6" height="1" fill="#ffffff"/>
  </symbol>

  <symbol id="icon-treatment" viewBox="0 0 24 24">
    <path d="M20 4h-16c-1.1 0-2 0.9-2 2v12c0 1.1 0.9 2 2 2h16c1.1 0 2-0.9 2-2v-12c0-1.1-0.9-2-2-2z" fill="#2563eb"/>
    <path d="M6 8h3v3h2v-3h3v-2h-3v-3h-2v3h-3v2z" fill="#ffffff"/>
    <path d="M18 15h-12v2h12v-2z" fill="#ffffff"/>
  </symbol>

  <symbol id="icon-research" viewBox="0 0 24 24">
    <path d="M12 2c-5.52 0-10 4.48-10 10s4.48 10 10 10 10-4.48 10-10-4.48-10-10-10z" fill="#2563eb"/>
    <path d="M12 6c-3.31 0-6 2.69-6 6s2.69 6 6 6 6-2.69 6-6-2.69-6-6-6z" fill="#ffffff"/>
    <path d="M12 8c-2.21 0-4 1.79-4 4s1.79 4 4 4 4-1.79 4-4-1.79-4-4-4z" fill="#2563eb"/>
  </symbol>

  <symbol id="icon-education" viewBox="0 0 24 24">
    <path d="M12 3l-9 4v12l9 4 9-4v-12l-9-4z" fill="#2563eb"/>
    <path d="M12 7l-6 2.5v5l6 2.5 6-2.5v-5l-6-2.5z" fill="#ffffff"/>
    <rect x="11" y="15" width="2" height="6" fill="#ffffff"/>
  </symbol>

  <symbol id="icon-support" viewBox="0 0 24 24">
    <path d="M12 2c-5.52 0-10 4.48-10 10s4.48 10 10 10 10-4.48 10-10-4.48-10-10-10z" fill="#2563eb"/>
    <path d="M18 13h-5v5h-2v-5h-5v-2h5v-5h2v5h5v2z" fill="#ffffff"/>
  </symbol>
</svg>